<svg id="Capa_1" data-name="Capa 1" xmlns="http://www.w3.org/2000/svg" viewBox="0 0 95 68.05"><defs><style>.cls-1{fill:#29a46b;}</style></defs><title>check-profesional</title><path class="cls-1" d="M94.71,14.6a3.92,3.92,0,0,0-4.11,2L54.12,72.26c-.1.16-.21.3-.33.48l-.39-.32-6.61-5.71,26.53-40.5c1.29-2,2.63-3.9,3.82-5.92a3.86,3.86,0,0,0-2.79-5.69,3.92,3.92,0,0,0-4.11,2L33.76,72.26c-.1.16-.21.3-.33.48L33,72.42q-5.73-5-11.48-9.91L9.7,52.26a3.91,3.91,0,0,0-3.76-1,3.71,3.71,0,0,0-2.81,2.83,3.79,3.79,0,0,0,1.31,4Q18,69.82,31.57,81.52a4.82,4.82,0,0,0,1.3.79,3.91,3.91,0,0,0,4.86-1.77q2.37-3.6,4.72-7.2l9.48,8.18a4.67,4.67,0,0,0,1.3.79,3.91,3.91,0,0,0,4.86-1.77L93.68,26.21c1.28-2,2.63-3.9,3.82-5.92A3.87,3.87,0,0,0,94.71,14.6Z" transform="translate(-3 -14.55)"/></svg>