<svg id="Capa_4" data-name="Capa 4" xmlns="http://www.w3.org/2000/svg" viewBox="0 0 76.26 54.62"><defs><style>.cls-1{fill:#003e4d;}</style></defs><title>check-card</title><path class="cls-1" d="M89.36,23a3.14,3.14,0,0,0-3.3,1.57L56.78,69.29l-.27.38c-.12-.1-.22-.17-.31-.26-1.77-1.52-3.54-3-5.3-4.58L72.19,32.32c1-1.57,2.11-3.12,3.06-4.75A3.09,3.09,0,0,0,73,23a3.14,3.14,0,0,0-3.3,1.57Q55.08,46.95,40.43,69.29c-.07.12-.16.24-.26.38-.12-.1-.22-.17-.31-.26l-9.22-7.95-9.52-8.23a3.16,3.16,0,0,0-3-.79,3,3,0,0,0-2.26,2.28,3,3,0,0,0,1,3.2q10.89,9.4,21.78,18.8a4,4,0,0,0,1,.64,3.14,3.14,0,0,0,3.9-1.42l3.79-5.78L55,76.72a3.84,3.84,0,0,0,1,.64A3.15,3.15,0,0,0,60,75.94L88.53,32.32c1-1.57,2.11-3.12,3.07-4.75A3.1,3.1,0,0,0,89.36,23" transform="translate(-15.74 -22.96)"/></svg>