<svg id="Capa_1" data-name="Capa 1" xmlns="http://www.w3.org/2000/svg" viewBox="0 0 97 69.48"><defs><style>.cls-1{fill:#3aaf7f;}</style></defs><title>icon-activo</title><path class="cls-1" d="M94.64,15.62a4,4,0,0,0-4.2,2Q71.83,46.06,53.19,74.49c-.1.16-.21.31-.33.49-.16-.13-.28-.22-.4-.33l-6.75-5.82L72.8,27.47c1.31-2,2.69-4,3.9-6a3.94,3.94,0,0,0-2.84-5.8,4,4,0,0,0-4.2,2Q51,46.06,32.41,74.49c-.1.16-.21.31-.33.49-.16-.13-.29-.22-.4-.33L20,64.53,7.84,54.07a4,4,0,0,0-3.84-1A3.8,3.8,0,0,0,1.14,56,3.85,3.85,0,0,0,2.47,60q13.84,12,27.7,23.91a4.69,4.69,0,0,0,1.33.82,4,4,0,0,0,5-1.81q2.41-3.67,4.82-7.36L51,83.94a4.69,4.69,0,0,0,1.33.82,4,4,0,0,0,5-1.81L93.59,27.47c1.31-2,2.68-4,3.9-6A3.94,3.94,0,0,0,94.64,15.62Z" transform="translate(-1 -15.56)"/></svg>