<svg id="Capa_1" data-name="Capa 1" xmlns="http://www.w3.org/2000/svg" viewBox="0 0 14.05 14.05"><defs><style>.cls-1{fill:#fbfdfd;}</style></defs><title>icon-tool</title><path class="cls-1" d="M8,11.44a3.72,3.72,0,1,1,3.72-3.72A3.73,3.73,0,0,1,8,11.44Zm0-7a3.26,3.26,0,1,0,3.26,3.26A3.27,3.27,0,0,0,8,4.46Z" transform="translate(-1 -0.69)"/><path class="cls-1" d="M8.43,14.75H7.62a1,1,0,0,1-1-1.05V13a5.65,5.65,0,0,1-1.27-.52L4.82,13a1,1,0,0,1-1.48,0l-.57-.57a1.06,1.06,0,0,1,0-1.48l.49-.48a5.88,5.88,0,0,1-.53-1.27H2.05A1,1,0,0,1,1,8.12v-.8a1,1,0,0,1,1-1.05h.68A5.88,5.88,0,0,1,3.26,5l-.49-.48A1.06,1.06,0,0,1,2.77,3l.57-.57a1,1,0,0,1,1.48,0L5.31,3a5.65,5.65,0,0,1,1.27-.52V1.74a1,1,0,0,1,1-1h.81a1,1,0,0,1,1,1.05v.69A5.65,5.65,0,0,1,10.74,3l.49-.48a1,1,0,0,1,1.48,0l.57.57a1,1,0,0,1,.3.74,1,1,0,0,1-.3.74L12.79,5a5.42,5.42,0,0,1,.53,1.27H14a1,1,0,0,1,1.05,1.05v.8A1,1,0,0,1,14,9.17h-.68a5.42,5.42,0,0,1-.53,1.27l.49.48a1,1,0,0,1,.3.74,1,1,0,0,1-.3.74l-.57.57a1,1,0,0,1-1.48,0l-.49-.48A5.65,5.65,0,0,1,9.47,13v.69A1,1,0,0,1,8.43,14.75ZM5.27,12l.12,0a5.26,5.26,0,0,0,1.47.61.23.23,0,0,1,.18.22v.87a.59.59,0,0,0,.58.59h.81A.59.59,0,0,0,9,13.7v-.87a.23.23,0,0,1,.18-.22A5.14,5.14,0,0,0,10.66,12a.23.23,0,0,1,.3.05l.59.6a.6.6,0,0,0,.84,0l.56-.57a.59.59,0,0,0,.17-.42.58.58,0,0,0-.17-.41l-.6-.6a.23.23,0,0,1,0-.28h0a4.85,4.85,0,0,0,.6-1.47.24.24,0,0,1,.23-.17H14a.59.59,0,0,0,.59-.59v-.8A.58.58,0,0,0,14,6.73h-.86a.23.23,0,0,1-.23-.18,4.79,4.79,0,0,0-.6-1.46.23.23,0,0,1,0-.29L13,4.19a.58.58,0,0,0,.17-.41A.59.59,0,0,0,13,3.36l-.56-.57a.62.62,0,0,0-.84,0l-.61.62a.24.24,0,0,1-.28,0,4.87,4.87,0,0,0-1.47-.61A.23.23,0,0,1,9,2.61V1.74a.59.59,0,0,0-.58-.59H7.62A.59.59,0,0,0,7,1.74v.87a.23.23,0,0,1-.18.22,5,5,0,0,0-1.47.61.24.24,0,0,1-.28,0L4.5,2.79a.6.6,0,0,0-.83,0l-.57.57a.59.59,0,0,0,0,.83l.61.61a.23.23,0,0,1,0,.29,5.05,5.05,0,0,0-.6,1.46.23.23,0,0,1-.23.18H2.05a.58.58,0,0,0-.59.59v.8a.59.59,0,0,0,.59.59h.86a.24.24,0,0,1,.23.17,4.85,4.85,0,0,0,.6,1.47h0a.14.14,0,0,1,0,.06.24.24,0,0,1-.07.23l-.6.6a.59.59,0,0,0,0,.83l.57.57a.59.59,0,0,0,.83,0L5.1,12A.22.22,0,0,1,5.27,12Z" transform="translate(-1 -0.69)"/></svg>