<svg id="Capa_1" data-name="Capa 1" xmlns="http://www.w3.org/2000/svg" viewBox="0 0 94.78 83.89"><defs><style>.cls-1{fill:#fab300;}</style></defs><title>icon-alert</title><g id="Piit3G"><path class="cls-1" d="M13.22,60.21C21.9,45,30.71,29.82,39.47,14.64,43.23,8.11,50.18,6.05,55.71,10a14,14,0,0,1,3.76,4.32q17.44,30,34.71,60.06c1.09,1.89,2.39,3.86,2.68,6,1.33,9.72-7.19,11.52-14,11.47-22.54-.16-45.08-.06-67.63-.08a17.53,17.53,0,0,1-4.1-.34c-5.48-1.31-9.68-5.69-8.83-11.19C3.49,72.76,9.45,66.82,13.22,60.21Zm36.2,26.25h2.7c10.79,0,21.58,0,32.37,0,2.37,0,4.35-.62,5.61-2.8s.87-4.06-.3-6.07Q82,64.18,74.27,50.7C67.82,39.52,61.34,28.35,54.93,17.14c-1.41-2.45-3.23-3.89-6.19-3.52-2.25.28-3.46,1.78-4.49,3.58Q36.51,30.67,28.72,44.12,19.1,60.8,9.46,77.48c-1.34,2.31-1.62,4.52,0,6.76,1.3,1.81,3.19,2.23,5.3,2.23Q32.1,86.43,49.42,86.46Z" transform="translate(-2.22 -8)"/><path class="cls-1" d="M52.24,35.56v27H47v-27Z" transform="translate(-2.22 -8)"/><path class="cls-1" d="M53.17,71.94A3.57,3.57,0,1,1,46,71.83a3.57,3.57,0,0,1,7.14.11Z" transform="translate(-2.22 -8)"/></g></svg>