<svg id="Capa_1" data-name="Capa 1" xmlns="http://www.w3.org/2000/svg" viewBox="0 0 14 14"><defs><style>.cls-1{fill:#fbfdfd;}</style></defs><title>icon-search</title><path class="cls-1" d="M7.08,12a5.48,5.48,0,1,1,5.48-5.48A5.49,5.49,0,0,1,7.08,12Zm0-10.42A4.94,4.94,0,1,0,12,6.48,4.94,4.94,0,0,0,7.08,1.54Z" transform="translate(-1.6 -1)"/><path class="cls-1" d="M14.54,15a1,1,0,0,1-.74-.31h0L10.07,11a.29.29,0,0,1,0-.39l1.11-1.1a.26.26,0,0,1,.38,0l3.73,3.72a1.05,1.05,0,0,1,0,1.49A1.06,1.06,0,0,1,14.54,15Zm-3.9-4.22,3.54,3.53h0a.54.54,0,0,0,.73,0,.52.52,0,0,0,0-.73l-3.54-3.53Z" transform="translate(-1.6 -1)"/></svg>