<svg id="Capa_1" data-name="Capa 1" xmlns="http://www.w3.org/2000/svg" viewBox="0 0 45.11 36.51"><defs><style>.cls-1{fill:#003e4d;}</style></defs><title>logo-tw</title><path class="cls-1" d="M72,34.88a13.12,13.12,0,0,1-5,1.29A9.76,9.76,0,0,0,70.92,31a11.8,11.8,0,0,1-6,2.16c-.87-.43-3.46-2.8-7.77-2.59,0,0-9.71.65-8.2,11.44h-.22s-11.65-.22-19-9.71c0,0-4.32,6.47,2.8,12.52a7.25,7.25,0,0,1-4.1-1.3,9.36,9.36,0,0,0,7.34,9.28,8.88,8.88,0,0,1-4.1.22s1.51,5.82,8.63,6.26c0,0-4.53,4.53-13.38,3.88A27.52,27.52,0,0,0,41.57,67,25,25,0,0,0,61,58.19a29,29,0,0,0,6.48-18.78c1.94-.86,4.53-4.53,4.53-4.53" transform="translate(-26.89 -30.55)"/></svg>