<svg id="Group_1" data-name="Group 1" xmlns="http://www.w3.org/2000/svg" xmlns:xlink="http://www.w3.org/1999/xlink" viewBox="0 0 1777.93 245.14"><defs><style>.cls-1{fill:url(#linear-gradient);}.cls-2{fill:#2d2d2d;fill-rule:evenodd;}</style><linearGradient id="linear-gradient" x1="33" y1="399.94" x2="348.39" y2="399.94" gradientTransform="translate(5.03 -3.57)" gradientUnits="userSpaceOnUse"><stop offset="0" stop-color="#c55384"/><stop offset="1" stop-color="#ab44ab"/></linearGradient></defs><title>logo_dibrand</title><g id="DIBRAND_copia" data-name="DIBRAND copia"><path class="cls-1" d="M298.76,275.64V517.37h54.66V275.64ZM80,275.64l-42-.28v51l39.57.08c37.24,0,67.64,21.82,67.64,70.24s-30.4,69.89-67.64,69.89L38,467.36v50H79.65c73.11,0,122-46,122-120.69S152.76,275.64,80,275.64Z" transform="translate(-38.03 -275.36)"/></g><g id="DIBRAND_copia_2" data-name="DIBRAND copia 2"><path class="cls-2" d="M593.5,392.11c19.81-6.48,35.53-26.94,35.53-51.83,0-37.16-27.67-64.78-75.5-64.78H463V517.24h97.7c45.78,0,75.84-29,75.84-68.53C636.54,417.34,615.36,397.22,593.5,392.11Zm-77.89-71.94h28.7c21.18,0,31.77,10.23,31.77,25.91,0,16.36-12.3,26.25-31.09,26.25H515.61Zm33.82,153.08H515.61V416.66h33.82c21.18,0,33.48,11.59,33.48,28.29C582.91,462.34,570.27,473.25,549.43,473.25ZM916.7,351.19c0-43-30.74-75.69-78.57-75.69h-96V517.24h54v-90h19.13l43.39,90h59.44l-49.2-97.86C898.6,408.81,916.7,383.92,916.7,351.19Zm-88.82,29.67H796.11V322.21h31.77c22.21,0,34.16,11.25,34.16,29.32C862,368.58,850.09,380.86,827.88,380.86ZM1093,275.5,1001.8,517.24h56.71l17.42-49.1h93.6l17.43,49.1h58.76L1155.53,275.5Zm.68,143.54,29.72-83.53,29,83.53Zm406.57,3.41L1409.38,275.5h-65.59V517.24h53.64V358.35l99.75,158.89h57V275.5h-54Zm194.08-143.68-41.34-.28v51l39,.08c37.24,0,67.64,21.82,67.64,70.23s-30.4,69.9-67.64,69.9l-39,.79v50h41c73.11,0,122-46,122-120.7S1767.11,278.77,1694.34,278.77Z" transform="translate(-38.03 -275.36)"/></g></svg>