<svg id="Capa_1" data-name="Capa 1" xmlns="http://www.w3.org/2000/svg" viewBox="0 0 44.96 63"><defs><style>.cls-1{fill:#003e4d;}</style></defs><title>logo-in</title><path class="cls-1" d="M27,25.41a8.49,8.49,0,0,1,1.52-5.19A4.62,4.62,0,0,1,32.59,18a5.14,5.14,0,0,1,3.81,1.85,9.68,9.68,0,0,1,1.52,5.56A9.28,9.28,0,0,1,36.4,30.6a4.62,4.62,0,0,1-4.07,2.22,4.51,4.51,0,0,1-3.81-2.22A9.28,9.28,0,0,1,27,25.41m.51,13h9.65V81H27.51ZM42.75,81H52.4V57.28A11.94,11.94,0,0,1,52.65,54a14.53,14.53,0,0,1,1.78-3.71,3.37,3.37,0,0,1,3-1.48c3.3,0,4.82,3.33,4.82,9.63V81H72V56.54q0-9.45-3-14.45a9.1,9.1,0,0,0-8.13-4.82c-3.81,0-6.6,2.22-8.89,7V38.38H42.75V81Z" transform="translate(-27 -18)"/></svg>