<svg id="Capa_1" data-name="Capa 1" xmlns="http://www.w3.org/2000/svg" viewBox="0 0 55 56.21"><defs><style>.cls-1{fill:#003e4d;}</style></defs><title>logo-instagram</title><path class="cls-1" d="M45.23,45.89a9.11,9.11,0,1,1,18.22,0,9.11,9.11,0,1,1-18.22,0m-4.89,0a14,14,0,1,0,28,0,14,14,0,1,0-28,0m25.39-15a3.05,3.05,0,0,0,2.93,3.34,3.35,3.35,0,0,0,0-6.69,3.52,3.52,0,0,0-2.93,3.35M43.27,68.65a14.07,14.07,0,0,1-5.21-1c-1.3-.67-2.27-1-2.92-2a15.28,15.28,0,0,1-2-3,15.38,15.38,0,0,1-1-5.35V45.89c0-7.36,0-8.36.32-11.37a15.21,15.21,0,0,1,1-5.36,6.86,6.86,0,0,1,1.63-3,15.44,15.44,0,0,1,2.92-2c1-.67,2.61-1,5.21-1,2.93,0,3.91-.33,11.07-.33s8.13,0,11.06.33a14.24,14.24,0,0,1,5.21,1c1.3.67,2.28,1,2.93,2a15.82,15.82,0,0,1,1.95,3,15.21,15.21,0,0,1,1,5.36c0,3,.33,3.68.33,11.37s0,8.37-.33,11.38a15.09,15.09,0,0,1-1,5.35c-.65,1.34-1,2.35-1.95,3a14.74,14.74,0,0,1-2.93,2,14,14,0,0,1-5.21,1c-2.93,0-3.58.33-11.06.33s-8.14-.33-11.07-.33m0-50.53a13.9,13.9,0,0,0-6.84,1.67,9.26,9.26,0,0,0-4.55,2.68,16.58,16.58,0,0,0-3.25,5,33.3,33.3,0,0,0-1.3,7c0,3-.33,4-.33,11.37s0,8.7.33,11.38a20.74,20.74,0,0,0,1.3,7,11.1,11.1,0,0,0,3.25,5c1.95,1.67,2.93,2.67,4.88,3a24.85,24.85,0,0,0,6.84,1.34c2.93,0,3.9.33,11.06.33s8.47,0,11.07-.33a19.2,19.2,0,0,0,6.84-1.34,19.75,19.75,0,0,0,4.88-3,9.76,9.76,0,0,0,2.92-5,26.42,26.42,0,0,0,1.31-7c0-3,.32-4,.32-11.38s0-8.7-.32-11.37a20.43,20.43,0,0,0-1.31-7,32.14,32.14,0,0,0-3.25-5,9.35,9.35,0,0,0-4.88-3,63.12,63.12,0,0,0-6.84-1.34c-2.93,0-3.9-.33-11.06-.33s-8.14,0-11.07.33" transform="translate(-27 -17.79)"/></svg>